<svg width="253" height="57" viewBox="0 0 253 57" fill="none" xmlns="http://www.w3.org/2000/svg">
<path d="M0 2.16122C0 0.967612 0.974862 0 2.17741 0H6.53225C7.7348 0 8.70966 0.967609 8.70966 2.16121V54.4999C8.70966 55.6935 7.7348 56.6611 6.53224 56.6611H2.17741C0.97486 56.6611 0 55.6935 0 54.4999V2.16122Z" fill="url(#paint0_linear_851_49)" style="mix-blend-mode:darken"/>
<path d="M69.6773 2.16122C69.6773 0.967612 70.6521 0 71.8547 0H76.2095C77.4121 0 78.3869 0.967609 78.3869 2.16121V54.4999C78.3869 55.6935 77.4121 56.6611 76.2095 56.6611H71.8547C70.6521 56.6611 69.6773 55.6935 69.6773 54.4999V2.16122Z" fill="url(#paint1_linear_851_49)" style="mix-blend-mode:darken"/>
<path d="M23.9314 0H19.5765C18.374 0 17.3991 0.967612 17.3991 2.16122V54.4999C17.3991 55.6935 18.374 56.6611 19.5765 56.6611H19.5968H23.9314H23.9516C25.1541 56.6611 26.129 55.6935 26.129 54.4999V21.6122C26.129 14.4505 31.9782 8.64486 39.1935 8.64486C45.6701 8.64486 51.046 13.3226 52.0789 19.46C52.277 20.6373 53.2329 21.6122 54.4354 21.6122H58.7902C59.9928 21.6122 60.9791 20.6417 60.8604 19.454C59.7694 8.53119 50.4852 0 39.1935 0C34.2826 0 29.7514 2.27873 26.1088 5.00101V2.16121C26.1088 0.967609 25.1339 0 23.9314 0Z" fill="url(#paint2_linear_851_49)" style="mix-blend-mode:darken"/>
<path d="M106.93 6.29568C100.498 6.29568 95.2843 10.5237 95.2843 15.7392C95.2843 20.9547 102.862 24.2833 106.93 25.1827C110.998 26.0821 115.333 26.354 118.577 28.3306C123.29 31.2021 126.339 35.7733 126.339 40.9219C126.339 49.6145 117.649 56.6611 106.93 56.6611C101.57 56.6611 96.7178 54.8995 93.2055 52.0512C90.5643 49.9095 88.6808 47.1533 87.9089 44.0698C87.8266 43.7412 87.757 43.4089 87.7004 43.0733C87.502 41.896 88.4955 40.9219 89.698 40.9219H93.1069C94.3094 40.9219 95.2557 41.9072 95.5829 43.0558C95.6813 43.4015 95.8032 43.7398 95.947 44.0698C96.5317 45.4114 97.4798 46.6139 98.6952 47.5995C100.803 49.3084 103.714 50.3654 106.93 50.3654C113.361 50.3654 118.575 46.1374 118.575 40.9219C118.575 35.7064 113.059 32.3778 106.93 31.4784C100.801 30.579 98.5266 30.3071 95.2824 28.3306C90.5692 25.459 87.5206 20.8878 87.5206 15.7392C87.5206 7.04668 96.2104 0 106.93 0C112.29 0 117.142 1.76167 120.654 4.60991C123.295 6.75168 125.179 9.50785 125.951 12.5914C126.033 12.9199 126.103 13.2522 126.159 13.5878C126.358 14.7651 125.364 15.7392 124.162 15.7392H120.753C119.55 15.7392 118.604 14.7539 118.277 13.6053C118.178 13.2597 118.057 12.9213 117.913 12.5914C117.328 11.2497 116.38 10.0472 115.164 9.06162C113.057 7.35268 110.146 6.29568 106.93 6.29568Z" fill="url(#paint3_linear_851_49)" style="mix-blend-mode:darken"/>
<path d="M140.136 16.9507H139.108V8.40939H142.509C143.023 8.40939 143.456 8.51136 143.807 8.71531C144.166 8.91109 144.435 9.19254 144.614 9.55965C144.802 9.91859 144.896 10.351 144.896 10.8567C144.896 11.3544 144.802 11.7867 144.614 12.1539C144.435 12.521 144.166 12.8065 143.807 13.0104C143.456 13.2062 143.023 13.3041 142.509 13.3041H140.136V16.9507ZM140.136 9.31491V12.3986H142.509C142.779 12.3986 143.007 12.3537 143.195 12.264C143.391 12.1661 143.537 12.0274 143.635 11.8479C143.741 11.6603 143.794 11.436 143.794 11.1749V10.5386C143.794 10.2775 143.741 10.0573 143.635 9.8778C143.537 9.69017 143.391 9.55149 143.195 9.46175C143.007 9.36386 142.779 9.31491 142.509 9.31491H140.136ZM148.578 17.0975C148.015 17.0975 147.517 16.9629 147.085 16.6937C146.661 16.4163 146.326 16.0329 146.082 15.5434C145.845 15.0458 145.727 14.4625 145.727 13.7936C145.727 13.1246 145.845 12.5454 146.082 12.056C146.326 11.5583 146.661 11.1749 147.085 10.9057C147.517 10.6283 148.015 10.4896 148.578 10.4896C149.141 10.4896 149.634 10.6283 150.059 10.9057C150.491 11.1749 150.825 11.5583 151.062 12.056C151.307 12.5454 151.429 13.1246 151.429 13.7936C151.429 14.4625 151.307 15.0458 151.062 15.5434C150.825 16.0329 150.491 16.4163 150.059 16.6937C149.634 16.9629 149.141 17.0975 148.578 17.0975ZM148.578 16.2287C149.108 16.2287 149.541 16.0656 149.875 15.7392C150.209 15.4129 150.377 14.9153 150.377 14.2463V13.3408C150.377 12.6719 150.209 12.1742 149.875 11.8479C149.541 11.5216 149.108 11.3585 148.578 11.3585C148.056 11.3585 147.623 11.5216 147.281 11.8479C146.946 12.1742 146.779 12.6719 146.779 13.3408V14.2463C146.779 14.9153 146.946 15.4129 147.281 15.7392C147.623 16.0656 148.056 16.2287 148.578 16.2287ZM154.007 16.9507L152.319 10.6365H153.273L153.946 13.3653L154.619 16.1308H154.644L155.414 13.3653L156.21 10.6365H157.079L157.899 13.3653L158.682 16.1308H158.706L159.355 13.3653L160.04 10.6365H160.958L159.281 16.9507H158.07L157.189 13.916L156.638 11.9948H156.614L156.075 13.916L155.194 16.9507H154.007ZM164.686 17.0975C164.115 17.0975 163.618 16.9629 163.193 16.6937C162.769 16.4163 162.439 16.0329 162.202 15.5434C161.966 15.0458 161.847 14.4625 161.847 13.7936C161.847 13.1246 161.966 12.5454 162.202 12.056C162.439 11.5583 162.769 11.1749 163.193 10.9057C163.618 10.6283 164.115 10.4896 164.686 10.4896C165.249 10.4896 165.734 10.6242 166.142 10.8935C166.55 11.1545 166.864 11.5175 167.085 11.9825C167.305 12.4475 167.415 12.9778 167.415 13.5733V14.0383H162.875V14.332C162.875 14.8786 163.038 15.3354 163.365 15.7025C163.699 16.0615 164.16 16.2409 164.747 16.2409C165.147 16.2409 165.494 16.1471 165.788 15.9595C166.089 15.7719 166.322 15.5027 166.485 15.1519L167.183 15.6536C166.979 16.0778 166.66 16.4245 166.228 16.6937C165.796 16.9629 165.282 17.0975 164.686 17.0975ZM164.686 11.3095C164.335 11.3095 164.021 11.3911 163.744 11.5542C163.475 11.7174 163.263 11.9458 163.108 12.2395C162.953 12.525 162.875 12.8513 162.875 13.2185V13.3041H166.363V13.1695C166.363 12.7942 166.293 12.4679 166.155 12.1906C166.016 11.9132 165.82 11.697 165.567 11.542C165.314 11.387 165.021 11.3095 164.686 11.3095ZM170.007 16.9507H169.028V10.6365H170.007V11.799H170.068C170.142 11.595 170.256 11.4074 170.411 11.2361C170.566 11.0566 170.766 10.9139 171.011 10.8078C171.255 10.6936 171.549 10.6365 171.892 10.6365H172.271V11.6154H171.696C171.345 11.6154 171.043 11.6644 170.79 11.7623C170.537 11.852 170.342 11.9744 170.203 12.1294C170.072 12.2844 170.007 12.4639 170.007 12.6678V16.9507ZM175.836 17.0975C175.265 17.0975 174.767 16.9629 174.343 16.6937C173.918 16.4163 173.588 16.0329 173.351 15.5434C173.115 15.0458 172.997 14.4625 172.997 13.7936C172.997 13.1246 173.115 12.5454 173.351 12.056C173.588 11.5583 173.918 11.1749 174.343 10.9057C174.767 10.6283 175.265 10.4896 175.836 10.4896C176.398 10.4896 176.884 10.6242 177.292 10.8935C177.7 11.1545 178.014 11.5175 178.234 11.9825C178.454 12.4475 178.564 12.9778 178.564 13.5733V14.0383H174.025V14.332C174.025 14.8786 174.188 15.3354 174.514 15.7025C174.848 16.0615 175.309 16.2409 175.897 16.2409C176.296 16.2409 176.643 16.1471 176.937 15.9595C177.239 15.7719 177.471 15.5027 177.634 15.1519L178.332 15.6536C178.128 16.0778 177.81 16.4245 177.377 16.6937C176.945 16.9629 176.431 17.0975 175.836 17.0975ZM175.836 11.3095C175.485 11.3095 175.171 11.3911 174.893 11.5542C174.624 11.7174 174.412 11.9458 174.257 12.2395C174.102 12.525 174.025 12.8513 174.025 13.2185V13.3041H177.512V13.1695C177.512 12.7942 177.443 12.4679 177.304 12.1906C177.165 11.9132 176.97 11.697 176.717 11.542C176.464 11.387 176.17 11.3095 175.836 11.3095ZM184.216 16.9507V15.9228H184.167C183.979 16.3144 183.73 16.6081 183.42 16.8038C183.118 16.9996 182.751 17.0975 182.319 17.0975C181.797 17.0975 181.34 16.9629 180.948 16.6937C180.565 16.4245 180.267 16.0411 180.055 15.5434C179.851 15.0458 179.749 14.4625 179.749 13.7936C179.749 13.1165 179.851 12.5332 180.055 12.0437C180.267 11.5461 180.565 11.1627 180.948 10.8935C181.34 10.6242 181.797 10.4896 182.319 10.4896C182.751 10.4896 183.127 10.5875 183.445 10.7833C183.763 10.971 184.004 11.2646 184.167 11.6644H184.216V7.89544H185.195V16.9507H184.216ZM182.588 16.2165C182.89 16.2165 183.163 16.1675 183.408 16.0696C183.653 15.9636 183.849 15.8167 183.995 15.6291C184.142 15.4333 184.216 15.2008 184.216 14.9316V12.5821C184.216 12.3456 184.142 12.1375 183.995 11.9581C183.849 11.7786 183.653 11.6358 183.408 11.5298C183.163 11.4237 182.89 11.3707 182.588 11.3707C182.042 11.3707 181.605 11.5461 181.279 11.8969C180.961 12.2395 180.802 12.6923 180.802 13.2552V14.332C180.802 14.8949 180.961 15.3517 181.279 15.7025C181.605 16.0452 182.042 16.2165 182.588 16.2165ZM190.168 16.9507V7.89544H191.147V11.6644H191.196C191.359 11.2646 191.599 10.971 191.918 10.7833C192.236 10.5875 192.611 10.4896 193.043 10.4896C193.574 10.4896 194.031 10.6242 194.414 10.8935C194.797 11.1627 195.091 11.5461 195.295 12.0437C195.507 12.5332 195.613 13.1165 195.613 13.7936C195.613 14.4625 195.507 15.0458 195.295 15.5434C195.091 16.0411 194.797 16.4245 194.414 16.6937C194.031 16.9629 193.574 17.0975 193.043 17.0975C192.611 17.0975 192.24 16.9996 191.93 16.8038C191.628 16.6081 191.383 16.3144 191.196 15.9228H191.147V16.9507H190.168ZM192.774 16.2165C193.329 16.2165 193.765 16.0452 194.084 15.7025C194.402 15.3517 194.561 14.8949 194.561 14.332V13.2552C194.561 12.6923 194.402 12.2395 194.084 11.8969C193.765 11.5461 193.329 11.3707 192.774 11.3707C192.481 11.3707 192.207 11.4237 191.954 11.5298C191.71 11.6358 191.514 11.7786 191.367 11.9581C191.22 12.1375 191.147 12.3456 191.147 12.5821V14.9316C191.147 15.2008 191.22 15.4333 191.367 15.6291C191.514 15.8167 191.71 15.9636 191.954 16.0696C192.207 16.1675 192.481 16.2165 192.774 16.2165ZM199.568 14.9316L201.098 10.6365H202.064L199.238 18.4191C199.148 18.672 199.046 18.8678 198.932 19.0065C198.826 19.1533 198.683 19.2553 198.503 19.3124C198.324 19.3695 198.079 19.398 197.769 19.398H197.267V18.5415H198.259L198.736 17.1954L196.374 10.6365H197.353L198.871 14.9316L199.164 15.9595H199.225L199.568 14.9316Z" fill="black"/>
<path d="M142.135 35.4762C142.799 34.9196 143.794 34.6413 145.12 34.6413C145.985 34.6323 146.845 34.777 147.66 35.0686C148.438 35.3574 149.181 35.7333 149.874 36.189C150.143 36.3996 150.468 36.5247 150.808 36.5481C151.118 36.5542 151.418 36.4374 151.642 36.2232C151.754 36.1196 151.842 35.9936 151.901 35.8534C151.961 35.7132 151.99 35.562 151.986 35.4098C151.994 35.1584 151.932 34.9098 151.807 34.6915C151.687 34.4892 151.41 34.2654 150.975 34.02C150.182 33.4623 149.303 33.0378 148.374 32.7631C147.332 32.4555 146.251 32.3048 145.165 32.316C143.161 32.316 141.569 32.8247 140.391 33.8422C139.822 34.315 139.366 34.9109 139.06 35.5851C138.754 36.2594 138.604 36.9944 138.622 37.735C138.622 38.9321 138.879 39.8897 139.392 40.6079C139.911 41.3309 140.603 41.9118 141.404 42.2975C142.247 42.71 143.123 43.05 144.023 43.3138C144.944 43.5856 145.818 43.8573 146.644 44.129C147.384 44.3536 148.074 44.7194 148.675 45.2064C149.203 45.6541 149.467 46.2849 149.467 47.0989C149.467 48.1559 149.102 48.9693 148.37 49.5391C147.639 50.1088 146.569 50.3943 145.161 50.3955C144.243 50.3949 143.33 50.2557 142.453 49.9826C141.589 49.72 140.774 49.3211 140.036 48.8011C139.902 48.6821 139.749 48.5862 139.584 48.5174C139.434 48.4627 139.276 48.4348 139.116 48.4348C138.967 48.434 138.818 48.4643 138.681 48.5236C138.543 48.5829 138.419 48.67 138.317 48.7795C138.205 48.8877 138.116 49.0179 138.057 49.1618C137.997 49.3058 137.968 49.4605 137.971 49.6163C137.963 49.8677 138.025 50.1164 138.15 50.3345C138.349 50.6099 138.605 50.839 138.901 51.006C139.813 51.5949 140.815 52.0281 141.868 52.2881C142.929 52.5669 144.02 52.7104 145.117 52.7154C147.175 52.7154 148.834 52.2001 150.095 51.1694C151.356 50.1388 151.985 48.7688 151.983 47.0594C151.983 45.8623 151.719 44.9131 151.19 44.2116C150.657 43.5004 149.96 42.9283 149.159 42.5435C148.323 42.1319 147.453 41.7913 146.56 41.5255C145.651 41.2537 144.778 40.976 143.939 40.6923C143.195 40.4563 142.507 40.0728 141.915 39.5647C141.4 39.105 141.143 38.4814 141.144 37.6937C141.128 37.2727 141.209 36.8536 141.381 36.4691C141.553 36.0845 141.811 35.7448 142.135 35.4762V35.4762Z" fill="black"/>
<path d="M171.507 44.4709C171.254 44.2878 170.946 44.1949 170.634 44.2069C170.329 44.2006 170.029 44.2932 169.781 44.4709C169.542 44.6481 169.422 44.9395 169.422 45.3453C169.422 46.9182 169.07 48.1458 168.366 49.028C167.662 49.9103 166.565 50.3508 165.075 50.3496C163.531 50.3496 162.42 49.9091 161.744 49.028C161.068 48.147 160.729 46.9194 160.727 45.3453V35.4931H168.935C169.367 35.4931 169.672 35.3782 169.849 35.1483C170.02 34.9042 170.112 34.6129 170.112 34.3143C170.112 34.0157 170.02 33.7244 169.849 33.4803C169.671 33.248 169.366 33.1325 168.935 33.1337H160.72V27.8476C160.72 27.413 160.598 27.1096 160.362 26.9318C160.099 26.7494 159.785 26.6568 159.465 26.6679C159.152 26.6626 158.845 26.7548 158.587 26.9318C158.329 27.1114 158.2 27.413 158.2 27.8476V33.1373H153.734C153.327 33.1373 153.037 33.2522 152.859 33.4838C152.688 33.728 152.596 34.0193 152.596 34.3179C152.596 34.6165 152.688 34.9078 152.859 35.1519C153.03 35.3818 153.327 35.4931 153.734 35.4931H158.202V45.3399C158.202 47.6455 158.799 49.4494 159.994 50.7518C161.189 52.0542 162.882 52.7054 165.073 52.7054C166.32 52.7336 167.55 52.4167 168.628 51.7896C169.642 51.1815 170.466 50.3007 171.005 49.2471C171.573 48.1626 171.857 46.874 171.858 45.3812C171.853 44.9503 171.737 44.6505 171.507 44.4709Z" fill="black"/>
<path d="M181.564 32.3234C180.19 32.3007 178.832 32.6294 177.62 33.2786C176.462 33.9133 175.511 34.869 174.881 36.0312C174.217 37.2282 173.886 38.6647 173.886 40.3406V44.8564C173.886 47.2984 174.611 49.2178 176.06 50.6148C177.51 52.0117 179.44 52.7102 181.849 52.7102C182.856 52.7093 183.859 52.5796 184.834 52.3241C185.778 52.0844 186.687 51.7222 187.537 51.2468C188.159 50.8685 188.47 50.4346 188.471 49.945C188.474 49.6548 188.373 49.3731 188.186 49.1514C188.106 49.0442 188.001 48.9571 187.882 48.897C187.762 48.8369 187.63 48.8053 187.496 48.8048C187.358 48.8055 187.221 48.8267 187.089 48.8677C186.903 48.933 186.726 49.0217 186.562 49.1316C185.832 49.5038 185.071 49.8102 184.287 50.0474C183.508 50.2582 182.703 50.3591 181.896 50.3472C180.163 50.3472 178.822 49.8684 177.873 48.9108C176.924 47.9531 176.45 46.6035 176.451 44.8618V43.2673H187.908C188.367 43.2673 188.699 43.1398 188.903 42.8813C189.123 42.567 189.231 42.1872 189.208 41.8039V40.2975C189.208 37.7478 188.491 35.781 187.057 34.3972C185.623 33.0135 183.792 32.3222 181.564 32.3234ZM176.446 40.2562C176.446 38.4678 176.913 37.0846 177.848 36.1066C178.782 35.1286 180.021 34.6402 181.564 34.6414C183.107 34.6414 184.346 35.1298 185.282 36.1066C186.218 37.0834 186.685 38.4666 186.684 40.2562V40.9493H176.446V40.2562Z" fill="black"/>
<path d="M206.367 32.8005C206.096 32.6208 205.777 32.5287 205.453 32.5366C205.141 32.5324 204.836 32.6246 204.58 32.8005C204.321 32.9801 204.194 33.2961 204.194 33.7576V35.0647C203.612 34.2128 202.829 33.5178 201.915 33.0414C201 32.5651 199.983 32.3219 198.952 32.3337C197.667 32.317 196.398 32.6173 195.256 33.2081C194.128 33.808 193.203 34.7281 192.595 35.853C191.931 37.0321 191.599 38.5445 191.6 40.3904V44.6997C191.6 47.4122 192.258 49.4262 193.572 50.7418C194.887 52.0573 196.56 52.7157 198.592 52.7169C199.767 52.7207 200.925 52.4346 201.964 51.8838C202.967 51.3587 203.817 50.5838 204.434 49.6339L204.524 51.3738C204.551 51.7814 204.673 52.0723 204.883 52.2501C205.101 52.4262 205.375 52.5197 205.655 52.514C205.946 52.5256 206.229 52.4231 206.446 52.2285C206.65 52.049 206.751 51.7401 206.751 51.3307V33.7486C206.752 33.2871 206.625 32.9693 206.367 32.8005ZM204.194 45.0696C204.194 46.6689 203.747 47.9503 202.853 48.9139C201.959 49.8775 200.727 50.3563 199.157 50.3504C197.45 50.3504 196.184 49.8147 195.358 48.7433C194.532 47.672 194.118 46.3229 194.117 44.6961V40.3868C194.117 38.7313 194.531 37.375 195.358 36.318C196.185 35.261 197.451 34.7319 199.157 34.7307C200.727 34.7307 201.959 35.2096 202.853 36.1672C203.747 37.1248 204.194 38.3967 204.194 39.9828V45.0696Z" fill="black"/>
<path d="M228.035 32.3247C226.708 32.3247 225.564 32.624 224.602 33.2225C223.691 33.7979 222.954 34.6103 222.468 35.5729C222.232 35.0443 221.91 34.5588 221.515 34.1364C220.362 32.9298 218.893 32.3265 217.106 32.3265C215.98 32.302 214.87 32.5903 213.897 33.1596C213.139 33.6173 212.504 34.2534 212.047 35.0127L211.988 33.6696C211.961 33.262 211.838 32.9711 211.63 32.7934C211.411 32.6169 211.137 32.5234 210.857 32.5294C210.566 32.517 210.281 32.6137 210.057 32.8005C209.855 32.9777 209.754 33.2829 209.753 33.7163V51.3361C209.737 51.5035 209.761 51.6722 209.824 51.8283C209.886 51.9844 209.985 52.1234 210.111 52.2339C210.369 52.4283 210.685 52.529 211.007 52.5194C211.332 52.5264 211.651 52.4343 211.922 52.2555C212.179 52.0771 212.307 51.7719 212.307 51.3397V39.9325C212.307 36.4611 213.729 34.7254 216.572 34.7254C218.062 34.7254 219.119 35.1862 219.742 36.108C220.364 37.0297 220.676 38.3045 220.676 39.9325V51.3272C220.661 51.4972 220.689 51.6681 220.757 51.8248C220.824 51.9814 220.929 52.1189 221.063 52.2249C221.328 52.4171 221.648 52.5173 221.975 52.5104C222.298 52.52 222.614 52.4193 222.872 52.2249C222.998 52.1144 223.097 51.9754 223.159 51.8193C223.221 51.6632 223.246 51.4945 223.23 51.3272V39.9325C223.23 36.4611 224.664 34.7254 227.533 34.7254C228.996 34.7254 230.045 35.1862 230.681 36.108C231.317 37.0297 231.635 38.3045 231.636 39.9325V51.3272C231.621 51.4945 231.645 51.6632 231.707 51.8193C231.77 51.9754 231.868 52.1144 231.995 52.2249C232.252 52.4195 232.569 52.5202 232.891 52.5104C233.219 52.5171 233.54 52.4169 233.805 52.2249C233.939 52.1189 234.044 51.9814 234.112 51.8248C234.179 51.6681 234.207 51.4972 234.193 51.3272V39.8517C234.193 37.2481 233.61 35.3425 232.445 34.1346C231.279 32.9268 229.809 32.3235 228.035 32.3247Z" fill="black"/>
<path d="M244.977 23.5283C242.508 23.5283 240.649 25.0689 240.398 27.1823H241.757C242.008 25.8572 243.295 24.9253 244.984 24.9253C246.879 24.9253 248.309 26.1445 248.309 27.7551V28.1501L243.58 28.5792C239.898 28.9024 237.359 30.6567 237.359 34.2029C237.359 37.4619 239.869 39.7907 243.58 39.7907C245.477 39.7907 247.121 39.2521 248.302 38.2861V39.3975H249.697V27.7551C249.697 25.3203 247.764 23.5283 244.977 23.5283ZM248.302 33.0574C248.302 34.7757 246.728 36.0667 244.261 36.0667C242.436 36.0667 241.434 35.2067 241.434 34.1311C241.434 33.0215 242.151 32.2332 243.944 32.0896L248.308 31.6963L248.302 33.0574ZM248.302 30.4772L243.831 30.8722C241.364 31.0876 240.006 32.1973 240.006 34.167C240.006 35.9949 241.544 37.356 244.046 37.356C245.977 37.356 247.515 36.6754 248.302 35.5604V36.8855C247.3 37.8892 245.728 38.5015 243.831 38.5015C240.757 38.5015 238.788 36.6754 238.788 34.167C238.788 31.4737 240.683 30.048 243.724 29.7966L248.302 29.4034V30.4772Z" fill="url(#paint4_linear_851_49)" style="mix-blend-mode:darken"/>
<path d="M244.978 20.9502C240.971 20.9502 238.038 23.6004 237.789 27.1826H239.184C239.44 24.3887 241.794 22.3112 244.978 22.3112C248.483 22.3112 250.914 24.6042 250.914 27.7554V39.3978H252.308V27.7554C252.308 23.8231 249.34 20.9502 244.978 20.9502Z" fill="url(#paint5_linear_851_49)" style="mix-blend-mode:darken"/>
<defs>
<linearGradient id="paint0_linear_851_49" x1="-0.00847172" y1="-0.152541" x2="126.023" y2="57.5217" gradientUnits="userSpaceOnUse">
<stop stop-color="#00FFD0"/>
<stop offset="0.5" stop-color="#17FAFF"/>
<stop offset="1" stop-color="#00BFFF"/>
</linearGradient>
<linearGradient id="paint1_linear_851_49" x1="-0.00847172" y1="-0.152541" x2="126.023" y2="57.5217" gradientUnits="userSpaceOnUse">
<stop stop-color="#00FFD0"/>
<stop offset="0.5" stop-color="#17FAFF"/>
<stop offset="1" stop-color="#00BFFF"/>
</linearGradient>
<linearGradient id="paint2_linear_851_49" x1="-0.00847172" y1="-0.152541" x2="126.023" y2="57.5217" gradientUnits="userSpaceOnUse">
<stop stop-color="#00FFD0"/>
<stop offset="0.5" stop-color="#17FAFF"/>
<stop offset="1" stop-color="#00BFFF"/>
</linearGradient>
<linearGradient id="paint3_linear_851_49" x1="-0.00847172" y1="-0.152541" x2="126.023" y2="57.5217" gradientUnits="userSpaceOnUse">
<stop stop-color="#00FFD0"/>
<stop offset="0.5" stop-color="#17FAFF"/>
<stop offset="1" stop-color="#00BFFF"/>
</linearGradient>
<linearGradient id="paint4_linear_851_49" x1="237.359" y1="23.4845" x2="251.891" y2="25.7473" gradientUnits="userSpaceOnUse">
<stop stop-color="#28C7B4"/>
<stop offset="0.5" stop-color="#00A4B2"/>
<stop offset="1" stop-color="#009CED"/>
</linearGradient>
<linearGradient id="paint5_linear_851_49" x1="237.788" y1="20.9005" x2="254.86" y2="23.6581" gradientUnits="userSpaceOnUse">
<stop stop-color="#28C7B4"/>
<stop offset="0.5" stop-color="#00A4B2"/>
<stop offset="1" stop-color="#009CED"/>
</linearGradient>
</defs>
</svg>
